<svg id="Light_Lists_Single-line_Body_2_w_right_icon" data-name="Light ðŸŒ•/ Lists/Single-line/Body 2 w/ right icon" xmlns="http://www.w3.org/2000/svg" width="328" height="48" viewBox="0 0 328 48">
  <rect id="_Elevation" data-name="â˜ï¸ Elevation" width="328" height="48" fill="#fff"/>
  <g id="Devider_Light_" data-name="Devider / Light ðŸŒ•" transform="translate(16 47)">
    <rect id="Devider_Light_2" data-name="Devider / Light ðŸŒ•" width="312" height="1" fill="rgba(0,0,0,0.12)"/>
  </g>
  <g id="_Icon" data-name="ðŸ“Icon" transform="translate(288 12)">
    <rect id="Boundary" width="24" height="24" fill="none"/>
    <path id="_Color" data-name=" â†³Color" d="M10,18,8.55,16.705C3.4,12.124,0,9.1,0,5.4A5.4,5.4,0,0,1,5.5,0,6.037,6.037,0,0,1,10,2.05,6.037,6.037,0,0,1,14.5,0,5.4,5.4,0,0,1,20,5.4c0,3.708-3.4,6.729-8.55,11.32Z" transform="translate(2 3)" fill="rgba(0,0,0,0.6)"/>
  </g>
  <rect id="_States" data-name="ðŸ’¡States" width="328" height="48" fill="none"/>
  <text id="_Subtitle_1" data-name="âœï¸ Subtitle 1" transform="translate(16 29)" fill="rgba(0,0,0,0.87)" font-size="14" font-family="Roboto-Regular, Roboto" letter-spacing="0.018em"><tspan x="0" y="0">Body 2</tspan></text>
</svg>
