<svg id="Light_Nav_Drawer_Î©Elements_3._Line_item_B._Resting" data-name="Light ðŸŒ•/ Nav Drawer/Î©Elements/3. Line item/B. Resting" xmlns="http://www.w3.org/2000/svg" width="304" height="48" viewBox="0 0 304 48">
  <rect id="_Elevation" data-name="â˜ï¸ Elevation" width="304" height="48" fill="#fff"/>
  <g id="_Choose_to_use_Icon" data-name="ðŸ‘‰ Choose to use ðŸ“Icon" transform="translate(16 12)">
    <rect id="Boundary" width="24" height="24" fill="none"/>
    <path id="_Color" data-name=" â†³Color" d="M10,18,8.55,16.705C3.4,12.124,0,9.1,0,5.4A5.4,5.4,0,0,1,5.5,0,6.037,6.037,0,0,1,10,2.05,6.037,6.037,0,0,1,14.5,0,5.4,5.4,0,0,1,20,5.4c0,3.708-3.4,6.729-8.55,11.32Z" transform="translate(2 3)" fill="rgba(0,0,0,0.6)"/>
  </g>
  <rect id="_States" data-name="ðŸ’¡States" width="304" height="48" fill="none"/>
  <text id="_Label" data-name="âœï¸ Label" transform="translate(72 30)" fill="rgba(0,0,0,0.6)" font-size="14" font-family="Roboto-Medium, Roboto" font-weight="500" letter-spacing="0.007em"><tspan x="0" y="0">Subtitle 2 </tspan></text>
</svg>
