<svg id="Light_Lists_Single-line_" data-name="Light ðŸŒ•/ Lists/Single-line/" xmlns="http://www.w3.org/2000/svg" width="360" height="48" viewBox="0 0 360 48">
  <rect id="_Elevation" data-name="â˜ï¸ Elevation" width="360" height="48" fill="none"/>
  <g id="Devider_Light_" data-name="Devider / Light ðŸŒ•" transform="translate(16 47)">
    <rect id="Devider_Light_2" data-name="Devider / Light ðŸŒ•" width="344" height="1" fill="rgba(0,0,0,0.12)"/>
  </g>
  <g id="_Icon" data-name="ðŸ“Icon" transform="translate(320 12)">
    <rect id="Boundary" width="24" height="24" fill="none"/>
    <path id="_Color" data-name=" â†³Color" d="M16,18H2a2,2,0,0,1-2-2V2A2,2,0,0,1,2,0H16a2,2,0,0,1,2,2V16A2,2,0,0,1,16,18ZM3.41,7.59h0L2,9l5,5,9-9L14.59,3.58,7,11.17,3.41,7.59Z" transform="translate(3 3)"/>
  </g>
  <rect id="_States" data-name="ðŸ’¡States" width="360" height="48" fill="none"/>
  <text id="_Subtitle_1" data-name="âœï¸ Subtitle 1" transform="translate(16 30)" fill="rgba(0,0,0,0.87)" font-size="16" font-family="Roboto-Regular, Roboto" letter-spacing="0.031em"><tspan x="0" y="0">Subtitle 1 </tspan></text>
</svg>
