<svg id="Light_Backdrop_Back_Layer" data-name="Light ðŸŒ•/ Backdrop / Back Layer" xmlns="http://www.w3.org/2000/svg" width="360" height="640" viewBox="0 0 360 640">
  <rect id="Primary" width="360" height="640" fill="#6200ee"/>
  <g id="_Leading_Icon_l_Use_High_Emphasis" data-name="ðŸ“ Leading Icon l Use High Emphasis" transform="translate(16 16)">
    <rect id="Boundary" width="24" height="24" fill="none"/>
    <path id="_Color" data-name=" â†³Color" d="M14,1.41,12.59,0,7,5.59,1.41,0,0,1.41,5.59,7,0,12.59,1.41,14,7,8.41,12.59,14,14,12.59,8.41,7Z" transform="translate(5 5)" fill="#fff"/>
  </g>
  <g id="icon_social_share_24px_" data-name="icon/social/share_24px " transform="translate(224 16)">
    <rect id="Boundary-2" data-name="Boundary" width="24" height="24" fill="none"/>
    <path id="_Color-2" data-name=" â†³Color" d="M15,14.137a2.906,2.906,0,0,0-1.96.773L5.91,10.743a3.3,3.3,0,0,0,.09-.7,3.3,3.3,0,0,0-.09-.7l7.05-4.127A2.99,2.99,0,0,0,18,3.012a3,3,0,1,0-6,0,3.3,3.3,0,0,0,.09.7L5.04,7.841a3.012,3.012,0,1,0,0,4.4l7.12,4.177a2.843,2.843,0,0,0-.08.653A2.92,2.92,0,1,0,15,14.137Z" transform="translate(3 2)" fill="#fff"/>
  </g>
  <g id="_Trailing_icon_2" data-name="ðŸ“Trailing icon 2" transform="translate(272 16)">
    <rect id="Boundary-3" data-name="Boundary" width="24" height="24" fill="none"/>
    <path id="_Color-3" data-name=" â†³Color" d="M10,18,8.55,16.705C3.4,12.124,0,9.1,0,5.4A5.4,5.4,0,0,1,5.5,0,6.037,6.037,0,0,1,10,2.05,6.037,6.037,0,0,1,14.5,0,5.4,5.4,0,0,1,20,5.4c0,3.708-3.4,6.729-8.55,11.32Z" transform="translate(2 3)" fill="#fff"/>
  </g>
  <g id="_Trailing_icon_3" data-name="ðŸ“Trailing icon 3" transform="translate(320 16)">
    <rect id="Boundary-4" data-name="Boundary" width="24" height="24" fill="none"/>
    <path id="_Color-4" data-name=" â†³Color" d="M16.467,18h0l-5.146-5.134v-.813l-.278-.288a6.7,6.7,0,1,1,.721-.721l.288.278h.813L18,16.467,16.468,18ZM6.689,2.058a4.631,4.631,0,1,0,4.631,4.631A4.637,4.637,0,0,0,6.689,2.058Z" transform="translate(3 3)" fill="#fff"/>
  </g>
</svg>
