<svg id="Light_Button_4._Toggle_C._Right_a._Resting" data-name="Light 🌕/ Button/4. Toggle/C. Right/a. Resting" xmlns="http://www.w3.org/2000/svg" width="48" height="48" viewBox="0 0 48 48">
  <g id="_Color" data-name="↳ 🎨 Color" fill="none" stroke="rgba(0,0,0,0.12)" stroke-miterlimit="10" stroke-width="1">
    <path d="M0,0H44a4,4,0,0,1,4,4V44a4,4,0,0,1-4,4H0a0,0,0,0,1,0,0V0A0,0,0,0,1,0,0Z" stroke="none"/>
    <path d="M1,.5H44A3.5,3.5,0,0,1,47.5,4V44A3.5,3.5,0,0,1,44,47.5H1A.5.5,0,0,1,.5,47V1A.5.5,0,0,1,1,.5Z" fill="none"/>
  </g>
  <g id="_States" data-name="↳ 💡States">
    <rect id="States_Light_Surface_containers_Primary_Content" data-name="States/Light 🌕/Surface containers/Primary Content" fill="rgba(98,0,238,0)"/>
  </g>
  <g id="icon_social_notifications_24px" data-name="icon/social/notifications_24px" transform="translate(12 12)">
    <rect id="Boundary" width="24" height="24" fill="none"/>
    <path id="_Color-2" data-name=" ↳Color" d="M8,19.5a2,2,0,0,1-2-2h4A2,2,0,0,1,8,19.5Zm8-3H0v-1l2-2v-5A7.1,7.1,0,0,1,3.174,4.44,5.522,5.522,0,0,1,6.5,2.18V1.5a1.5,1.5,0,0,1,3,0v.68a5.529,5.529,0,0,1,3.322,2.264A7.085,7.085,0,0,1,14,8.5v5l2,2v1Z" transform="translate(4 2)" fill="rgba(0,0,0,0.6)"/>
  </g>
</svg>
