<svg id="Light_Button_4._Toggle_B._Center_a._Resting" data-name="Light 🌕/ Button/4. Toggle/B. Center/a. Resting" xmlns="http://www.w3.org/2000/svg" width="48" height="48" viewBox="0 0 48 48">
  <g id="Container" transform="translate(-0.5)">
    <g id="_Color" data-name="↳ 🎨 Color" transform="translate(0.5)" fill="none" stroke="rgba(255,255,255,0.12)" stroke-miterlimit="10" stroke-width="1">
      <rect width="48" height="1" stroke="none"/>
      <rect x="0.5" y="0.5" width="47" fill="none"/>
    </g>
    <g id="_Color-2" data-name="↳ 🎨 Color" transform="translate(0.5 47)" fill="none" stroke="rgba(255,255,255,0.12)" stroke-miterlimit="10" stroke-width="1">
      <rect width="48" height="1" stroke="none"/>
      <rect x="0.5" y="0.5" width="47" fill="none"/>
    </g>
  </g>
  <g id="_States" data-name="↳ 💡States">
    <rect id="States_Light_Surface_containers_Primary_Content" data-name="States/Light 🌕/Surface containers/Primary Content" width="48" height="48" rx="4" fill="rgba(98,0,238,0)"/>
  </g>
  <g id="icon_action_visibility_24px" data-name="icon/action/visibility_24px" transform="translate(12 12)">
    <rect id="Boundary" width="24" height="24" fill="none"/>
    <path id="_Color-3" data-name=" ↳Color" d="M11,15a11.731,11.731,0,0,1-6.726-2.1A11.837,11.837,0,0,1,0,7.5a11.818,11.818,0,0,1,22,0,11.836,11.836,0,0,1-4.273,5.4A11.731,11.731,0,0,1,11,15ZM11,2.5a5,5,0,1,0,5,5A5.005,5.005,0,0,0,11,2.5Zm0,8a3,3,0,1,1,3-3A3,3,0,0,1,11,10.5Z" transform="translate(1 4.5)" fill="#6200ee"/>
  </g>
</svg>
