<svg id="Light_Button_4._Toggle" data-name="Light 🌕/ Button/4. Toggle" xmlns="http://www.w3.org/2000/svg" width="144" height="48" viewBox="0 0 144 48">
  <g id="Light_Button_4._Toggle_A._Left_a._Resting" data-name="Light 🌕/ Button/4. Toggle/A. Left/a. Resting">
    <g id="_Color" data-name="↳ 🎨 Color" fill="none" stroke="rgba(0,0,0,0.12)" stroke-miterlimit="10" stroke-width="1">
      <path d="M4,0H48a0,0,0,0,1,0,0V48a0,0,0,0,1,0,0H4a4,4,0,0,1-4-4V4A4,4,0,0,1,4,0Z" stroke="none"/>
      <path d="M4,.5H47a.5.5,0,0,1,.5.5V47a.5.5,0,0,1-.5.5H4A3.5,3.5,0,0,1,.5,44V4A3.5,3.5,0,0,1,4,.5Z" fill="none"/>
    </g>
    <g id="_States" data-name="↳ 💡States">
      <rect id="States_Light_Surface_containers_Primary_Content" data-name="States/Light 🌕/Surface containers/Primary Content" fill="rgba(98,0,238,0)"/>
    </g>
    <g id="icon_action_favorite_24px" data-name="icon/action/favorite_24px" transform="translate(12 12)">
      <rect id="Boundary" width="24" height="24" fill="none"/>
      <path id="_Color-2" data-name=" ↳Color" d="M10,18,8.55,16.705C3.4,12.124,0,9.1,0,5.4A5.4,5.4,0,0,1,5.5,0,6.037,6.037,0,0,1,10,2.05,6.037,6.037,0,0,1,14.5,0,5.4,5.4,0,0,1,20,5.4c0,3.708-3.4,6.729-8.55,11.32Z" transform="translate(2 3)" fill="rgba(0,0,0,0.6)"/>
    </g>
  </g>
  <g id="Light_Button_4._Toggle_C._Right_a._Resting" data-name="Light 🌕/ Button/4. Toggle/C. Right/a. Resting" transform="translate(96)">
    <g id="_Color-3" data-name="↳ 🎨 Color" fill="none" stroke="rgba(0,0,0,0.12)" stroke-miterlimit="10" stroke-width="1">
      <path d="M0,0H44a4,4,0,0,1,4,4V44a4,4,0,0,1-4,4H0a0,0,0,0,1,0,0V0A0,0,0,0,1,0,0Z" stroke="none"/>
      <path d="M1,.5H44A3.5,3.5,0,0,1,47.5,4V44A3.5,3.5,0,0,1,44,47.5H1A.5.5,0,0,1,.5,47V1A.5.5,0,0,1,1,.5Z" fill="none"/>
    </g>
    <g id="_States-2" data-name="↳ 💡States">
      <rect id="States_Light_Surface_containers_Primary_Content-2" data-name="States/Light 🌕/Surface containers/Primary Content" fill="rgba(98,0,238,0)"/>
    </g>
    <g id="icon_social_notifications_24px" data-name="icon/social/notifications_24px" transform="translate(12 12)">
      <rect id="Boundary-2" data-name="Boundary" width="24" height="24" fill="none"/>
      <path id="_Color-4" data-name=" ↳Color" d="M8,19.5a2,2,0,0,1-2-2h4A2,2,0,0,1,8,19.5Zm8-3H0v-1l2-2v-5A7.1,7.1,0,0,1,3.174,4.44,5.522,5.522,0,0,1,6.5,2.18V1.5a1.5,1.5,0,0,1,3,0v.68a5.529,5.529,0,0,1,3.322,2.264A7.085,7.085,0,0,1,14,8.5v5l2,2v1Z" transform="translate(4 2)" fill="rgba(0,0,0,0.6)"/>
    </g>
  </g>
  <g id="Light_Button_4._Toggle_B._Center_a._Resting" data-name="Light 🌕/ Button/4. Toggle/B. Center/a. Resting" transform="translate(48)">
    <g id="Container" transform="translate(-0.5)">
      <g id="_Color-5" data-name="↳ 🎨 Color" transform="translate(0.5)" fill="none" stroke="rgba(0,0,0,0.12)" stroke-miterlimit="10" stroke-width="1">
        <rect width="48" height="1" stroke="none"/>
        <rect x="0.5" y="0.5" width="47" fill="none"/>
      </g>
      <g id="_Color-6" data-name="↳ 🎨 Color" transform="translate(0.5 47)" fill="none" stroke="rgba(0,0,0,0.12)" stroke-miterlimit="10" stroke-width="1">
        <rect width="48" height="1" stroke="none"/>
        <rect x="0.5" y="0.5" width="47" fill="none"/>
      </g>
    </g>
    <g id="_States-3" data-name="↳ 💡States">
      <rect id="States_Light_Surface_containers_Primary_Content-3" data-name="States/Light 🌕/Surface containers/Primary Content" width="48" height="48" fill="rgba(98,0,238,0.08)"/>
    </g>
    <g id="icon_action_visibility_24px" data-name="icon/action/visibility_24px" transform="translate(12 12)">
      <rect id="Boundary-3" data-name="Boundary" width="24" height="24" fill="none"/>
      <path id="_Color-7" data-name=" ↳Color" d="M11,15a11.731,11.731,0,0,1-6.726-2.1A11.837,11.837,0,0,1,0,7.5a11.818,11.818,0,0,1,22,0,11.836,11.836,0,0,1-4.273,5.4A11.731,11.731,0,0,1,11,15ZM11,2.5a5,5,0,1,0,5,5A5.005,5.005,0,0,0,11,2.5Zm0,8a3,3,0,1,1,3-3A3,3,0,0,1,11,10.5Z" transform="translate(1 4.5)" fill="#6200ee"/>
    </g>
  </g>
</svg>
