<svg id="Light_Slider_1._Discret_B._Value_Indicator_3_States_" data-name="Light 🌕/ Slider/1. Discret/B. Value Indicator/ (3 States)" xmlns="http://www.w3.org/2000/svg" xmlns:xlink="http://www.w3.org/1999/xlink" width="142" height="62" viewBox="0 0 142 62">
  <defs>
    <clipPath id="clip-path">
      <rect id="Mask" width="142" height="2" rx="1" fill="rgba(1,135,134,0.38)"/>
    </clipPath>
    <clipPath id="clip-path-2">
      <rect id="Mask-2" data-name="Mask" width="59" height="2" rx="1" fill="rgba(1,135,134,0.38)"/>
    </clipPath>
  </defs>
  <g id="Light_Slider_ΩElements_1._Track" data-name="Light 🌕/ Slider/ΩElements/1. Track" transform="translate(0 55)">
    <g id="Mask-3" data-name="Mask" clip-path="url(#clip-path)">
      <rect id="Track" width="360" height="2" rx="1" fill="rgba(98,0,238,0.38)"/>
    </g>
  </g>
  <g id="Light_Slider_ΩElements_1._Track_Highlight" data-name="Light 🌕/ Slider/ΩElements/1. Track/ Highlight" transform="translate(0 55)">
    <g id="Mask-4" data-name="Mask" clip-path="url(#clip-path-2)">
      <rect id="Track-2" data-name="Track" width="360" height="2" rx="1" transform="translate(-118.923)" fill="#6200ee"/>
    </g>
  </g>
  <g id="Light_Slider_ΩElements_3._Value_Indicator" data-name="Light 🌕/ Slider/ΩElements/3. Value Indicator" transform="translate(43)">
    <path id="_Color" data-name="🎨 Color" d="M27.32,27.31C25.03,29.6,17,35.811,17,43v3c0,3.05,2.54,5.056,3.24,5.756a6,6,0,1,1-8.49,0C12.46,51.06,15,49.054,15,46V43c0-7.19-8.03-13.4-10.32-15.691a16,16,0,1,1,22.64,0Z" fill="#6200ee"/>
    <text id="_60" data-name="60" transform="translate(8 21)" fill="#fff" font-size="14" font-family="Roboto-Regular, Roboto" letter-spacing="0.018em"><tspan x="0" y="0">60</tspan></text>
  </g>
</svg>
