<svg id="Light_Backdrop_Bottom_sheet" data-name="Light 🌕/ Backdrop / Bottom sheet" xmlns="http://www.w3.org/2000/svg" xmlns:xlink="http://www.w3.org/1999/xlink" width="360" height="640" viewBox="0 0 360 640">
  <defs>
    <clipPath id="clip-path">
      <rect id="Mask" width="360" height="640" fill="#6200ee"/>
    </clipPath>
    <filter id="Rectangle" x="-7.5" y="49.5" width="375" height="599" filterUnits="userSpaceOnUse">
      <feOffset dy="1" input="SourceAlpha"/>
      <feGaussianBlur stdDeviation="2.5" result="blur"/>
      <feFlood flood-opacity="0.2"/>
      <feComposite operator="in" in2="blur"/>
      <feComposite in="SourceGraphic"/>
    </filter>
    <filter id="Rectangle-2" x="-1.5" y="56" width="363" height="588.5" filterUnits="userSpaceOnUse">
      <feOffset dy="3" input="SourceAlpha"/>
      <feGaussianBlur stdDeviation="0.5" result="blur-2"/>
      <feFlood flood-opacity="0.122"/>
      <feComposite operator="in" in2="blur-2"/>
      <feComposite in="SourceGraphic"/>
    </filter>
    <filter id="Rectangle-3" x="-3" y="55" width="366" height="590" filterUnits="userSpaceOnUse">
      <feOffset dy="2" input="SourceAlpha"/>
      <feGaussianBlur stdDeviation="1" result="blur-3"/>
      <feFlood flood-opacity="0.141"/>
      <feComposite operator="in" in2="blur-3"/>
      <feComposite in="SourceGraphic"/>
    </filter>
  </defs>
  <g id="Mask_Group_2" data-name="Mask Group 2" clip-path="url(#clip-path)">
    <g id="Light_Elevation_00dp" data-name="Light 🌕/Elevation/00dp" transform="translate(0 56)">
      <g id="Shadow" style="mix-blend-mode: multiply;isolation: isolate">
        <g transform="matrix(1, 0, 0, 1, 0, -56)" filter="url(#Rectangle)">
          <rect id="Rectangle-4" data-name="Rectangle" width="360" height="584" transform="translate(0 56)" fill="#fff"/>
        </g>
        <g transform="matrix(1, 0, 0, 1, 0, -56)" filter="url(#Rectangle-2)">
          <rect id="Rectangle-5" data-name="Rectangle" width="360" height="584" transform="translate(0 56)" fill="#fff"/>
        </g>
        <g transform="matrix(1, 0, 0, 1, 0, -56)" filter="url(#Rectangle-3)">
          <rect id="Rectangle-6" data-name="Rectangle" width="360" height="584" transform="translate(0 56)" fill="#fff"/>
        </g>
      </g>
    </g>
    <path id="Backdrop_Elements_Front_Layer" data-name="Backdrop / Elements / Front Layer" d="M4,0H356a4,4,0,0,1,4,4V584a0,0,0,0,1,0,0H0a0,0,0,0,1,0,0V4A4,4,0,0,1,4,0Z" transform="translate(0 56)" fill="#fff"/>
  </g>
</svg>
