<svg xmlns="http://www.w3.org/2000/svg" xmlns:xlink="http://www.w3.org/1999/xlink" width="370" height="526" viewBox="0 0 370 526">
  <defs>
    <filter id="Rectangle" x="13.5" y="15.5" width="343" height="499" filterUnits="userSpaceOnUse">
      <feOffset dy="5" input="SourceAlpha"/>
      <feGaussianBlur stdDeviation="2.5" result="blur"/>
      <feFlood flood-opacity="0.2"/>
      <feComposite operator="in" in2="blur"/>
      <feComposite in="SourceGraphic"/>
    </filter>
    <filter id="Rectangle-2" x="0" y="0" width="370" height="526" filterUnits="userSpaceOnUse">
      <feOffset dy="3" input="SourceAlpha"/>
      <feGaussianBlur stdDeviation="7" result="blur-2"/>
      <feFlood flood-opacity="0.122"/>
      <feComposite operator="in" in2="blur-2"/>
      <feComposite in="SourceGraphic"/>
    </filter>
    <filter id="Rectangle-3" x="6" y="11" width="358" height="514" filterUnits="userSpaceOnUse">
      <feOffset dy="8" input="SourceAlpha"/>
      <feGaussianBlur stdDeviation="5" result="blur-3"/>
      <feFlood flood-opacity="0.141"/>
      <feComposite operator="in" in2="blur-3"/>
      <feComposite in="SourceGraphic"/>
    </filter>
    <clipPath id="clip-path">
      <rect width="328" height="480" fill="none"/>
    </clipPath>
  </defs>
  <g id="Light_Menus_3_States_1._Large_Scroll_Dropdown" data-name="Light ðŸŒ•/ Menus/ (3 States) 1. Large Scroll Dropdown" transform="translate(21 18)">
    <g id="Light_Elevation_00dp" data-name="Light ðŸŒ•/Elevation/00dp">
      <g id="Shadow">
        <g transform="matrix(1, 0, 0, 1, -21, -18)" filter="url(#Rectangle)" style="mix-blend-mode: multiply;isolation: isolate">
          <rect id="Rectangle-4" data-name="Rectangle" width="328" height="484" rx="4" transform="translate(21 18)" fill="#fff"/>
        </g>
        <g transform="matrix(1, 0, 0, 1, -21, -18)" filter="url(#Rectangle-2)" style="mix-blend-mode: multiply;isolation: isolate">
          <rect id="Rectangle-5" data-name="Rectangle" width="328" height="484" rx="4" transform="translate(21 18)" fill="#fff"/>
        </g>
        <g transform="matrix(1, 0, 0, 1, -21, -18)" filter="url(#Rectangle-3)" style="mix-blend-mode: multiply;isolation: isolate">
          <rect id="Rectangle-6" data-name="Rectangle" width="328" height="484" rx="4" transform="translate(21 18)" fill="#fff"/>
        </g>
      </g>
    </g>
    <rect id="Container" width="328" height="484" rx="4" fill="#fff"/>
    <g id="List" clip-path="url(#clip-path)">
      <g transform="translate(-60 -318)">
        <g id="Light_Lists_Single-line_" data-name="Light ðŸŒ•/ Lists/Single-line/" transform="translate(60 318)">
          <rect id="_Elevation" data-name="â˜ï¸ Elevation" width="328" height="48" fill="#fff"/>
          <g id="_Icon" data-name="ðŸ“Icon" transform="translate(288 12)">
            <rect id="Boundary" width="24" height="24" fill="none"/>
            <path id="_Color" data-name=" â†³Color" d="M10,18,8.55,16.705C3.4,12.124,0,9.1,0,5.4A5.4,5.4,0,0,1,5.5,0,6.037,6.037,0,0,1,10,2.05,6.037,6.037,0,0,1,14.5,0,5.4,5.4,0,0,1,20,5.4c0,3.708-3.4,6.729-8.55,11.32Z" transform="translate(2 3)" fill="rgba(0,0,0,0.6)"/>
          </g>
          <rect id="_States" data-name="ðŸ’¡States" width="328" height="48" fill="none"/>
          <text id="_Subtitle_1" data-name="âœï¸ Subtitle 1" transform="translate(16 30)" fill="rgba(0,0,0,0.87)" font-size="16" font-family="Roboto-Regular, Roboto" letter-spacing="0.031em"><tspan x="0" y="0">Subtitle 1 </tspan></text>
        </g>
      </g>
      <g transform="translate(-60 -270)">
        <g id="Light_Lists_Single-line_2" data-name="Light ðŸŒ•/ Lists/Single-line/" transform="translate(60 318)">
          <rect id="_Elevation-2" data-name="â˜ï¸ Elevation" width="328" height="48" fill="#fff"/>
          <g id="_Icon-2" data-name="ðŸ“Icon" transform="translate(288 12)">
            <rect id="Boundary-2" data-name="Boundary" width="24" height="24" fill="none"/>
            <path id="_Color-2" data-name=" â†³Color" d="M10,18,8.55,16.705C3.4,12.124,0,9.1,0,5.4A5.4,5.4,0,0,1,5.5,0,6.037,6.037,0,0,1,10,2.05,6.037,6.037,0,0,1,14.5,0,5.4,5.4,0,0,1,20,5.4c0,3.708-3.4,6.729-8.55,11.32Z" transform="translate(2 3)" fill="rgba(0,0,0,0.6)"/>
          </g>
          <rect id="_States-2" data-name="ðŸ’¡States" width="328" height="48" fill="none"/>
          <text id="_Subtitle_1-2" data-name="âœï¸ Subtitle 1" transform="translate(16 30)" fill="rgba(0,0,0,0.87)" font-size="16" font-family="Roboto-Regular, Roboto" letter-spacing="0.031em"><tspan x="0" y="0">Subtitle 1 </tspan></text>
        </g>
      </g>
      <g transform="translate(-60 -222)">
        <g id="Light_Lists_Single-line_3" data-name="Light ðŸŒ•/ Lists/Single-line/" transform="translate(60 318)">
          <rect id="_Elevation-3" data-name="â˜ï¸ Elevation" width="328" height="48" fill="#fff"/>
          <g id="_Icon-3" data-name="ðŸ“Icon" transform="translate(288 12)">
            <rect id="Boundary-3" data-name="Boundary" width="24" height="24" fill="none"/>
            <path id="_Color-3" data-name=" â†³Color" d="M10,18,8.55,16.705C3.4,12.124,0,9.1,0,5.4A5.4,5.4,0,0,1,5.5,0,6.037,6.037,0,0,1,10,2.05,6.037,6.037,0,0,1,14.5,0,5.4,5.4,0,0,1,20,5.4c0,3.708-3.4,6.729-8.55,11.32Z" transform="translate(2 3)" fill="rgba(0,0,0,0.6)"/>
          </g>
          <rect id="_States-3" data-name="ðŸ’¡States" width="328" height="48" fill="none"/>
          <text id="_Subtitle_1-3" data-name="âœï¸ Subtitle 1" transform="translate(16 30)" fill="rgba(0,0,0,0.87)" font-size="16" font-family="Roboto-Regular, Roboto" letter-spacing="0.031em"><tspan x="0" y="0">Subtitle 1 </tspan></text>
        </g>
      </g>
      <g transform="translate(-60 -174)">
        <g id="Light_Lists_Single-line_4" data-name="Light ðŸŒ•/ Lists/Single-line/" transform="translate(60 318)">
          <rect id="_Elevation-4" data-name="â˜ï¸ Elevation" width="328" height="48" fill="#fff"/>
          <g id="_Icon-4" data-name="ðŸ“Icon" transform="translate(288 12)">
            <rect id="Boundary-4" data-name="Boundary" width="24" height="24" fill="none"/>
            <path id="_Color-4" data-name=" â†³Color" d="M10,18,8.55,16.705C3.4,12.124,0,9.1,0,5.4A5.4,5.4,0,0,1,5.5,0,6.037,6.037,0,0,1,10,2.05,6.037,6.037,0,0,1,14.5,0,5.4,5.4,0,0,1,20,5.4c0,3.708-3.4,6.729-8.55,11.32Z" transform="translate(2 3)"/>
          </g>
          <rect id="_States-4" data-name="ðŸ’¡States" width="328" height="48" fill="rgba(0,0,0,0.08)"/>
          <text id="_Subtitle_1-4" data-name="âœï¸ Subtitle 1" transform="translate(16 30)" fill="rgba(0,0,0,0.87)" font-size="16" font-family="Roboto-Regular, Roboto" letter-spacing="0.031em"><tspan x="0" y="0">Subtitle 1 </tspan></text>
        </g>
      </g>
      <g transform="translate(-60 -126)">
        <g id="Light_Lists_Single-line_5" data-name="Light ðŸŒ•/ Lists/Single-line/" transform="translate(60 318)">
          <rect id="_Elevation-5" data-name="â˜ï¸ Elevation" width="328" height="48" fill="#fff"/>
          <g id="_Icon-5" data-name="ðŸ“Icon" transform="translate(288 12)">
            <rect id="Boundary-5" data-name="Boundary" width="24" height="24" fill="none"/>
            <path id="_Color-5" data-name=" â†³Color" d="M10,18,8.55,16.705C3.4,12.124,0,9.1,0,5.4A5.4,5.4,0,0,1,5.5,0,6.037,6.037,0,0,1,10,2.05,6.037,6.037,0,0,1,14.5,0,5.4,5.4,0,0,1,20,5.4c0,3.708-3.4,6.729-8.55,11.32Z" transform="translate(2 3)" fill="rgba(0,0,0,0.6)"/>
          </g>
          <rect id="_States-5" data-name="ðŸ’¡States" width="328" height="48" fill="none"/>
          <text id="_Subtitle_1-5" data-name="âœï¸ Subtitle 1" transform="translate(16 30)" fill="rgba(0,0,0,0.87)" font-size="16" font-family="Roboto-Regular, Roboto" letter-spacing="0.031em"><tspan x="0" y="0">Subtitle 1 </tspan></text>
        </g>
      </g>
      <g transform="translate(-60 -78)">
        <g id="Light_Lists_Single-line_6" data-name="Light ðŸŒ•/ Lists/Single-line/" transform="translate(60 318)">
          <rect id="_Elevation-6" data-name="â˜ï¸ Elevation" width="328" height="48" fill="#fff"/>
          <g id="_Icon-6" data-name="ðŸ“Icon" transform="translate(288 12)">
            <rect id="Boundary-6" data-name="Boundary" width="24" height="24" fill="none"/>
            <path id="_Color-6" data-name=" â†³Color" d="M10,18,8.55,16.705C3.4,12.124,0,9.1,0,5.4A5.4,5.4,0,0,1,5.5,0,6.037,6.037,0,0,1,10,2.05,6.037,6.037,0,0,1,14.5,0,5.4,5.4,0,0,1,20,5.4c0,3.708-3.4,6.729-8.55,11.32Z" transform="translate(2 3)" fill="rgba(0,0,0,0.6)"/>
          </g>
          <rect id="_States-6" data-name="ðŸ’¡States" width="328" height="48" fill="none"/>
          <text id="_Subtitle_1-6" data-name="âœï¸ Subtitle 1" transform="translate(16 30)" fill="rgba(0,0,0,0.87)" font-size="16" font-family="Roboto-Regular, Roboto" letter-spacing="0.031em"><tspan x="0" y="0">Subtitle 1 </tspan></text>
        </g>
      </g>
      <g transform="translate(-60 -30)">
        <g id="Light_Lists_Single-line_7" data-name="Light ðŸŒ•/ Lists/Single-line/" transform="translate(60 318)">
          <rect id="_Elevation-7" data-name="â˜ï¸ Elevation" width="328" height="48" fill="#fff"/>
          <g id="_Icon-7" data-name="ðŸ“Icon" transform="translate(288 12)">
            <rect id="Boundary-7" data-name="Boundary" width="24" height="24" fill="none"/>
            <path id="_Color-7" data-name=" â†³Color" d="M10,18,8.55,16.705C3.4,12.124,0,9.1,0,5.4A5.4,5.4,0,0,1,5.5,0,6.037,6.037,0,0,1,10,2.05,6.037,6.037,0,0,1,14.5,0,5.4,5.4,0,0,1,20,5.4c0,3.708-3.4,6.729-8.55,11.32Z" transform="translate(2 3)" fill="rgba(0,0,0,0.6)"/>
          </g>
          <rect id="_States-7" data-name="ðŸ’¡States" width="328" height="48" fill="none"/>
          <text id="_Subtitle_1-7" data-name="âœï¸ Subtitle 1" transform="translate(16 30)" fill="rgba(0,0,0,0.87)" font-size="16" font-family="Roboto-Regular, Roboto" letter-spacing="0.031em"><tspan x="0" y="0">Subtitle 1 </tspan></text>
        </g>
      </g>
      <g transform="translate(-60 18)">
        <g id="Light_Lists_Single-line_8" data-name="Light ðŸŒ•/ Lists/Single-line/" transform="translate(60 318)">
          <rect id="_Elevation-8" data-name="â˜ï¸ Elevation" width="328" height="48" fill="#fff"/>
          <g id="_Icon-8" data-name="ðŸ“Icon" transform="translate(288 12)">
            <rect id="Boundary-8" data-name="Boundary" width="24" height="24" fill="none"/>
            <path id="_Color-8" data-name=" â†³Color" d="M10,18,8.55,16.705C3.4,12.124,0,9.1,0,5.4A5.4,5.4,0,0,1,5.5,0,6.037,6.037,0,0,1,10,2.05,6.037,6.037,0,0,1,14.5,0,5.4,5.4,0,0,1,20,5.4c0,3.708-3.4,6.729-8.55,11.32Z" transform="translate(2 3)" fill="rgba(0,0,0,0.6)"/>
          </g>
          <rect id="_States-8" data-name="ðŸ’¡States" width="328" height="48" fill="none"/>
          <text id="_Subtitle_1-8" data-name="âœï¸ Subtitle 1" transform="translate(16 30)" fill="rgba(0,0,0,0.87)" font-size="16" font-family="Roboto-Regular, Roboto" letter-spacing="0.031em"><tspan x="0" y="0">Subtitle 1 </tspan></text>
        </g>
      </g>
      <g transform="translate(-60 66)">
        <g id="Light_Lists_Single-line_9" data-name="Light ðŸŒ•/ Lists/Single-line/" transform="translate(60 318)">
          <rect id="_Elevation-9" data-name="â˜ï¸ Elevation" width="328" height="48" fill="#fff"/>
          <g id="_Icon-9" data-name="ðŸ“Icon" transform="translate(288 12)">
            <rect id="Boundary-9" data-name="Boundary" width="24" height="24" fill="none"/>
            <path id="_Color-9" data-name=" â†³Color" d="M10,18,8.55,16.705C3.4,12.124,0,9.1,0,5.4A5.4,5.4,0,0,1,5.5,0,6.037,6.037,0,0,1,10,2.05,6.037,6.037,0,0,1,14.5,0,5.4,5.4,0,0,1,20,5.4c0,3.708-3.4,6.729-8.55,11.32Z" transform="translate(2 3)" fill="rgba(0,0,0,0.6)"/>
          </g>
          <rect id="_States-9" data-name="ðŸ’¡States" width="328" height="48" fill="none"/>
          <text id="_Subtitle_1-9" data-name="âœï¸ Subtitle 1" transform="translate(16 30)" fill="rgba(0,0,0,0.87)" font-size="16" font-family="Roboto-Regular, Roboto" letter-spacing="0.031em"><tspan x="0" y="0">Subtitle 1 </tspan></text>
        </g>
      </g>
      <g transform="translate(-60 114)">
        <g id="Light_Lists_Single-line_10" data-name="Light ðŸŒ•/ Lists/Single-line/" transform="translate(60 318)">
          <rect id="_Elevation-10" data-name="â˜ï¸ Elevation" width="328" height="48" fill="#fff"/>
          <g id="_Icon-10" data-name="ðŸ“Icon" transform="translate(288 12)">
            <rect id="Boundary-10" data-name="Boundary" width="24" height="24" fill="none"/>
            <path id="_Color-10" data-name=" â†³Color" d="M10,18,8.55,16.705C3.4,12.124,0,9.1,0,5.4A5.4,5.4,0,0,1,5.5,0,6.037,6.037,0,0,1,10,2.05,6.037,6.037,0,0,1,14.5,0,5.4,5.4,0,0,1,20,5.4c0,3.708-3.4,6.729-8.55,11.32Z" transform="translate(2 3)" fill="rgba(0,0,0,0.6)"/>
          </g>
          <rect id="_States-10" data-name="ðŸ’¡States" width="328" height="48" fill="none"/>
          <text id="_Subtitle_1-10" data-name="âœï¸ Subtitle 1" transform="translate(16 30)" fill="rgba(0,0,0,0.87)" font-size="16" font-family="Roboto-Regular, Roboto" letter-spacing="0.031em"><tspan x="0" y="0">Subtitle 1 </tspan></text>
        </g>
      </g>
    </g>
    <rect id="Scrollbar" width="4" height="40" rx="2" transform="translate(320 10)" fill="rgba(0,0,0,0.38)"/>
  </g>
</svg>
