<svg id="Light_Selection_Controls_1._Checkboxes_B._Deselected_5_States_" data-name="Light 🌕/ Selection Controls/1. Checkboxes/B. Deselected/(5 States)" xmlns="http://www.w3.org/2000/svg" width="24" height="24" viewBox="0 0 24 24">
  <g id="Light_Selection_Controls_1._Checkboxes_2_States_" data-name="Light 🌕/ Selection Controls/1. Checkboxes/(2 States)">
    <g id="icon_toggle_check_box_off_24px" data-name="icon/toggle/check_box_off_24px">
      <rect id="Boundary" width="24" height="24" fill="none"/>
      <path id="_Color" data-name=" ↳Color" d="M16,18H2a2,2,0,0,1-2-2V2A2,2,0,0,1,2,0H16a2,2,0,0,1,2,2V16A2,2,0,0,1,16,18ZM2,2V16H16V2Z" transform="translate(3 3)"/>
    </g>
    <g id="icon_toggle_check_box_off_24px-2" data-name="icon/toggle/check_box_off_24px">
      <rect id="Boundary-2" data-name="Boundary" width="24" height="24" fill="none"/>
      <path id="_Color-2" data-name=" ↳Color" d="M16,18H2a2,2,0,0,1-2-2V2A2,2,0,0,1,2,0H16a2,2,0,0,1,2,2V16A2,2,0,0,1,16,18ZM2,2V16H16V2Z" transform="translate(3 3)"/>
    </g>
  </g>
</svg>
