<svg xmlns="http://www.w3.org/2000/svg" xmlns:xlink="http://www.w3.org/1999/xlink" width="402" height="98" viewBox="0 0 402 98">
  <defs>
    <filter id="Rectangle" x="13.5" y="15.5" width="375" height="71" filterUnits="userSpaceOnUse">
      <feOffset dy="5" input="SourceAlpha"/>
      <feGaussianBlur stdDeviation="2.5" result="blur"/>
      <feFlood flood-opacity="0.2"/>
      <feComposite operator="in" in2="blur"/>
      <feComposite in="SourceGraphic"/>
    </filter>
    <filter id="Rectangle-2" x="0" y="0" width="402" height="98" filterUnits="userSpaceOnUse">
      <feOffset dy="3" input="SourceAlpha"/>
      <feGaussianBlur stdDeviation="7" result="blur-2"/>
      <feFlood flood-opacity="0.122"/>
      <feComposite operator="in" in2="blur-2"/>
      <feComposite in="SourceGraphic"/>
    </filter>
    <filter id="Rectangle-3" x="6" y="11" width="390" height="86" filterUnits="userSpaceOnUse">
      <feOffset dy="8" input="SourceAlpha"/>
      <feGaussianBlur stdDeviation="5" result="blur-3"/>
      <feFlood flood-opacity="0.141"/>
      <feComposite operator="in" in2="blur-3"/>
      <feComposite in="SourceGraphic"/>
    </filter>
    <clipPath id="clip-path">
      <rect id="Mask" width="360" height="56" fill="#6200ee"/>
    </clipPath>
  </defs>
  <g id="Light_App_bar_2._Bottom_5_States_" data-name="Light ðŸŒ•/ App bar / 2. Bottom / (5 States)" transform="translate(21 18)">
    <g id="Light_Elevation_00dp" data-name="Light ðŸŒ•/Elevation/00dp">
      <g id="Shadow">
        <g transform="matrix(1, 0, 0, 1, -21, -18)" filter="url(#Rectangle)" style="mix-blend-mode: multiply;isolation: isolate">
          <rect id="Rectangle-4" data-name="Rectangle" width="360" height="56" transform="translate(21 18)" fill="#fff"/>
        </g>
        <g transform="matrix(1, 0, 0, 1, -21, -18)" filter="url(#Rectangle-2)" style="mix-blend-mode: multiply;isolation: isolate">
          <rect id="Rectangle-5" data-name="Rectangle" width="360" height="56" transform="translate(21 18)" fill="#fff"/>
        </g>
        <g transform="matrix(1, 0, 0, 1, -21, -18)" filter="url(#Rectangle-3)" style="mix-blend-mode: multiply;isolation: isolate">
          <rect id="Rectangle-6" data-name="Rectangle" width="360" height="56" transform="translate(21 18)" fill="#fff"/>
        </g>
      </g>
    </g>
    <path id="Primary" d="M0,0H360V56H0Z" fill="#6200ee"/>
    <g id="Mask_Group" data-name="Mask Group" clip-path="url(#clip-path)">
      <g id="_Leading_Icon_l_Use_High_Emphasis" data-name="ðŸ“ Leading Icon l Use High Emphasis" transform="translate(16 16)">
        <rect id="Boundary" width="24" height="24" fill="none"/>
        <path id="_Color" data-name=" â†³Color" d="M18,12H0V10H18v2Zm0-5H0V5H18V7Zm0-5H0V0H18V2Z" transform="translate(3 6)" fill="#fff"/>
      </g>
      <g id="_Trailing_icon_1" data-name="ðŸ“Trailing icon 1" transform="translate(224 16)">
        <rect id="Boundary-2" data-name="Boundary" width="24" height="24" fill="none"/>
        <path id="_Color-2" data-name=" â†³Color" d="M8,19.5a2,2,0,0,1-2-2h4A2,2,0,0,1,8,19.5Zm8-3H0v-1l2-2v-5A7.1,7.1,0,0,1,3.174,4.44,5.522,5.522,0,0,1,6.5,2.18V1.5a1.5,1.5,0,0,1,3,0v.68a5.529,5.529,0,0,1,3.322,2.264A7.085,7.085,0,0,1,14,8.5v5l2,2v1Z" transform="translate(4 2)" fill="#fff"/>
      </g>
      <g id="_Trailing_icon_2" data-name="ðŸ“Trailing icon 2" transform="translate(272 16)">
        <rect id="Boundary-3" data-name="Boundary" width="24" height="24" fill="none"/>
        <path id="_Color-3" data-name=" â†³Color" d="M15,14.137a2.906,2.906,0,0,0-1.96.773L5.91,10.743a3.3,3.3,0,0,0,.09-.7,3.3,3.3,0,0,0-.09-.7l7.05-4.127A2.99,2.99,0,0,0,18,3.012a3,3,0,1,0-6,0,3.3,3.3,0,0,0,.09.7L5.04,7.841a3.012,3.012,0,1,0,0,4.4l7.12,4.177a2.843,2.843,0,0,0-.08.653A2.92,2.92,0,1,0,15,14.137Z" transform="translate(3 2)" fill="#fff"/>
      </g>
      <g id="_Trailing_icon_3" data-name="ðŸ“Trailing icon 3" transform="translate(320 16)">
        <rect id="Boundary-4" data-name="Boundary" width="24" height="24" fill="none"/>
        <path id="_Color-4" data-name=" â†³Color" d="M16.467,18h0l-5.146-5.134v-.813l-.278-.288a6.7,6.7,0,1,1,.721-.721l.288.278h.813L18,16.467,16.468,18ZM6.689,2.058a4.631,4.631,0,1,0,4.631,4.631A4.637,4.637,0,0,0,6.689,2.058Z" transform="translate(3 3)" fill="#fff"/>
      </g>
    </g>
  </g>
</svg>
