<svg id="icon_alert_notification_important_24px" data-name="icon/alert/notification_important_24px" xmlns="http://www.w3.org/2000/svg" width="24" height="24" viewBox="0 0 24 24">
  <rect id="Boundary" width="24" height="24" fill="none"/>
  <path id="_Color" data-name=" ↳Color" d="M9,21.5a1.992,1.992,0,0,1-1.99-1.99h3.98A1.992,1.992,0,0,1,9,21.5Zm9-3H0v-1l2-2v-6A6.992,6.992,0,0,1,7.5,2.67V1.5a1.5,1.5,0,0,1,3,0V2.67A6.992,6.992,0,0,1,16,9.5v6l2,2v1Zm-10-6v2h2v-2H8Zm0-6v4h2v-4H8Z" transform="translate(3 1.5)"/>
</svg>
