<svg xmlns="http://www.w3.org/2000/svg" xmlns:xlink="http://www.w3.org/1999/xlink" width="155" height="78" viewBox="0 0 155 78">
  <defs>
    <filter id="Rectangle" x="9" y="10" width="137" height="60" filterUnits="userSpaceOnUse">
      <feOffset dy="2" input="SourceAlpha"/>
      <feGaussianBlur stdDeviation="2" result="blur"/>
      <feFlood flood-opacity="0.2"/>
      <feComposite operator="in" in2="blur"/>
      <feComposite in="SourceGraphic"/>
    </filter>
    <filter id="Rectangle-2" x="0" y="0" width="155" height="78" filterUnits="userSpaceOnUse">
      <feOffset dy="1" input="SourceAlpha"/>
      <feGaussianBlur stdDeviation="5" result="blur-2"/>
      <feFlood flood-opacity="0.122"/>
      <feComposite operator="in" in2="blur-2"/>
      <feComposite in="SourceGraphic"/>
    </filter>
    <filter id="Rectangle-3" x="7.5" y="10.5" width="140" height="63" filterUnits="userSpaceOnUse">
      <feOffset dy="4" input="SourceAlpha"/>
      <feGaussianBlur stdDeviation="2.5" result="blur-3"/>
      <feFlood flood-opacity="0.141"/>
      <feComposite operator="in" in2="blur-3"/>
      <feComposite in="SourceGraphic"/>
    </filter>
    <clipPath id="clip-path">
      <rect id="FAB_Mask" data-name="FAB Mask" width="125" height="48" rx="24" transform="translate(60 466)" fill="#6200ee"/>
    </clipPath>
  </defs>
  <g id="Light_FAB_2._Extended" data-name="Light ðŸŒ•/ FAB / 2. Extended" transform="translate(15 14)">
    <g id="Container">
      <g id="Light_Elevation_00dp" data-name="Light ðŸŒ•/Elevation/00dp">
        <g id="Shadow" style="mix-blend-mode: multiply;isolation: isolate">
          <g transform="matrix(1, 0, 0, 1, -15, -14)" filter="url(#Rectangle)">
            <rect id="Rectangle-4" data-name="Rectangle" width="125" height="48" rx="24" transform="translate(15 14)" fill="#fff"/>
          </g>
          <g transform="matrix(1, 0, 0, 1, -15, -14)" filter="url(#Rectangle-2)">
            <rect id="Rectangle-5" data-name="Rectangle" width="125" height="48" rx="24" transform="translate(15 14)" fill="#fff"/>
          </g>
          <g transform="matrix(1, 0, 0, 1, -15, -14)" filter="url(#Rectangle-3)">
            <rect id="Rectangle-6" data-name="Rectangle" width="125" height="48" rx="24" transform="translate(15 14)" fill="#fff"/>
          </g>
        </g>
      </g>
      <rect id="_FAB_Color" data-name="ðŸŽ¨ FAB Color" width="125" height="48" rx="24" fill="#03dac5"/>
      <g id="State" transform="translate(-60 -466)" clip-path="url(#clip-path)">
        <g id="States_Light_Primary_Container" data-name="States/Light ðŸŒ•/Primary Container" transform="translate(60 466)">
          <rect id="States_Light_Primary_Container_100_Overlay" data-name="States/Light ðŸŒ•/Primary Container 100%/Overlay" width="125" height="48" rx="4" fill="rgba(255,255,255,0)"/>
        </g>
      </g>
    </g>
    <g id="icon_content_add_24px" data-name="icon/content/add_24px" transform="translate(12 12)">
      <rect id="Boundary" width="24" height="24" fill="none"/>
      <path id="_Color" data-name=" â†³Color" d="M14,8H8v6H6V8H0V6H6V0H8V6h6Z" transform="translate(5 5)" fill="rgba(0,0,0,0.87)"/>
    </g>
    <text id="_Label" data-name="â†³ âœï¸ Label" transform="translate(48 29)" fill="rgba(0,0,0,0.87)" font-size="14" font-family="Roboto-Medium, Roboto" font-weight="500" letter-spacing="0.089em"><tspan x="0" y="0">CREATE</tspan></text>
  </g>
</svg>
