<svg id="Light_Text_fields_1._Filled_18_States_" data-name="Light ðŸŒ•/ Text fields/1. Filled/ (18 States)" xmlns="http://www.w3.org/2000/svg" width="328" height="74" viewBox="0 0 328 74">
  <g id="Light_Elevation_00dp" data-name="Light ðŸŒ•/Elevation/00dp">
    <rect id="Rectangle" width="328" height="56" fill="#fff" style="mix-blend-mode: multiply;isolation: isolate"/>
  </g>
  <path id="_Container_l_Color" data-name="ðŸ”²ðŸŽ¨ Container l Color" d="M4,0H324a4,4,0,0,1,4,4V56a0,0,0,0,1,0,0H0a0,0,0,0,1,0,0V4A4,4,0,0,1,4,0Z" fill="rgba(0,0,0,0.04)"/>
  <path id="_States" data-name="ðŸ’¡States" d="M4,0H324a4,4,0,0,1,4,4V56a0,0,0,0,1,0,0H0a0,0,0,0,1,0,0V4A4,4,0,0,1,4,0Z" fill="none"/>
  <rect id="Indicator" width="328" height="1" transform="translate(0 55)" fill="rgba(255,255,255,0.6)"/>
  <text id="_Assistive_text" data-name="âœï¸ Assistive text" transform="translate(16 71)" fill="rgba(0,0,0,0.6)" font-size="12" font-family="Roboto-Regular, Roboto" letter-spacing="0.033em"><tspan x="0" y="0">Inactive</tspan></text>
  <g id="Trailing_icon" data-name="Trailing icon" transform="translate(292 16)">
    <rect id="Boundary" width="24" height="24" fill="none"/>
    <path id="_Color" data-name=" â†³Color" d="M11,15a11.731,11.731,0,0,1-6.726-2.1A11.837,11.837,0,0,1,0,7.5a11.818,11.818,0,0,1,22,0,11.836,11.836,0,0,1-4.273,5.4A11.731,11.731,0,0,1,11,15ZM11,2.5a5,5,0,1,0,5,5A5.005,5.005,0,0,0,11,2.5Zm0,8a3,3,0,1,1,3-3A3,3,0,0,1,11,10.5Z" transform="translate(1 4.5)" fill="rgba(0,0,0,0.6)"/>
  </g>
  <text id="_Input_text" data-name="âœï¸ Input text" transform="translate(16 33)" fill="rgba(0,0,0,0.6)" font-size="16" font-family="Roboto-Regular, Roboto" letter-spacing="0.009em"><tspan x="0" y="0">No leading icon</tspan></text>
</svg>
