<svg xmlns="http://www.w3.org/2000/svg" xmlns:xlink="http://www.w3.org/1999/xlink" width="402" height="98" viewBox="0 0 402 98">
  <defs>
    <filter id="Rectangle" x="13.5" y="15.5" width="375" height="71" filterUnits="userSpaceOnUse">
      <feOffset dy="5" input="SourceAlpha"/>
      <feGaussianBlur stdDeviation="2.5" result="blur"/>
      <feFlood flood-opacity="0.2"/>
      <feComposite operator="in" in2="blur"/>
      <feComposite in="SourceGraphic"/>
    </filter>
    <filter id="Rectangle-2" x="0" y="0" width="402" height="98" filterUnits="userSpaceOnUse">
      <feOffset dy="3" input="SourceAlpha"/>
      <feGaussianBlur stdDeviation="7" result="blur-2"/>
      <feFlood flood-opacity="0.122"/>
      <feComposite operator="in" in2="blur-2"/>
      <feComposite in="SourceGraphic"/>
    </filter>
    <filter id="Rectangle-3" x="6" y="11" width="390" height="86" filterUnits="userSpaceOnUse">
      <feOffset dy="8" input="SourceAlpha"/>
      <feGaussianBlur stdDeviation="5" result="blur-3"/>
      <feFlood flood-opacity="0.141"/>
      <feComposite operator="in" in2="blur-3"/>
      <feComposite in="SourceGraphic"/>
    </filter>
  </defs>
  <g id="Light_Bottom_Nav_3_States_" data-name="Light ðŸŒ•/ Bottom Nav (3 States)" transform="translate(21 18)">
    <g id="Light_Bottom_Nav_Container" data-name="Light ðŸŒ•/ Bottom Nav/Container">
      <g id="Light_Elevation_00dp" data-name="Light ðŸŒ•/Elevation/00dp">
        <g id="Shadow">
          <g transform="matrix(1, 0, 0, 1, -21, -18)" filter="url(#Rectangle)" style="mix-blend-mode: multiply;isolation: isolate">
            <rect id="Rectangle-4" data-name="Rectangle" width="360" height="56" transform="translate(21 18)" fill="#fff"/>
          </g>
          <g transform="matrix(1, 0, 0, 1, -21, -18)" filter="url(#Rectangle-2)" style="mix-blend-mode: multiply;isolation: isolate">
            <rect id="Rectangle-5" data-name="Rectangle" width="360" height="56" transform="translate(21 18)" fill="#fff"/>
          </g>
          <g transform="matrix(1, 0, 0, 1, -21, -18)" filter="url(#Rectangle-3)" style="mix-blend-mode: multiply;isolation: isolate">
            <rect id="Rectangle-6" data-name="Rectangle" width="360" height="56" transform="translate(21 18)" fill="#fff"/>
          </g>
        </g>
      </g>
      <rect id="Primary" width="360" height="56" fill="#6200ee"/>
    </g>
    <g id="Light_Bottom_Nav_Tab_on_Primary" data-name="Light ðŸŒ•/ Bottom Nav/Tab on Primary">
      <g id="Light_Elevation_00dp-2" data-name="Light ðŸŒ•/Elevation/00dp">
        <rect id="Rectangle-7" data-name="Rectangle" width="120" height="56" fill="#fff" style="mix-blend-mode: multiply;isolation: isolate"/>
      </g>
      <text id="_Caption" data-name="âœï¸ Caption" transform="translate(60 45)" fill="rgba(255,255,255,0.87)" font-size="12" font-family="Roboto-Regular, Roboto" letter-spacing="0.033em"><tspan x="-26.039" y="0">Favorites</tspan></text>
      <g id="icon_action_favorite_24px" data-name="icon/action/favorite_24px" transform="translate(48 8)">
        <rect id="Boundary" width="24" height="24" fill="none"/>
        <path id="_Color" data-name=" â†³Color" d="M10,18,8.55,16.705C3.4,12.124,0,9.1,0,5.4A5.4,5.4,0,0,1,5.5,0,6.037,6.037,0,0,1,10,2.05,6.037,6.037,0,0,1,14.5,0,5.4,5.4,0,0,1,20,5.4c0,3.708-3.4,6.729-8.55,11.32Z" transform="translate(2 3)" fill="#fff"/>
      </g>
    </g>
    <g id="Light_Bottom_Nav_Tab_on_Primary-2" data-name="Light ðŸŒ•/ Bottom Nav/Tab on Primary" transform="translate(120)">
      <g id="Light_Elevation_00dp-3" data-name="Light ðŸŒ•/Elevation/00dp">
        <rect id="Rectangle-8" data-name="Rectangle" width="120" height="56" fill="#fff" style="mix-blend-mode: multiply;isolation: isolate"/>
      </g>
      <text id="_Caption-2" data-name="âœï¸ Caption" transform="translate(60 45)" fill="rgba(255,255,255,0.6)" font-size="12" font-family="Roboto-Regular, Roboto" letter-spacing="0.033em"><tspan x="-19.422" y="0">Search</tspan></text>
      <g id="icon_action_search_24px" data-name="icon/action/search_24px" transform="translate(48 8)">
        <rect id="Boundary-2" data-name="Boundary" width="24" height="24" fill="none"/>
        <path id="_Color-2" data-name=" â†³Color" d="M16.467,18h0l-5.146-5.134v-.813l-.278-.288a6.7,6.7,0,1,1,.721-.721l.288.278h.813L18,16.467,16.468,18ZM6.689,2.058a4.631,4.631,0,1,0,4.631,4.631A4.637,4.637,0,0,0,6.689,2.058Z" transform="translate(3 3)" fill="rgba(255,255,255,0.6)"/>
      </g>
    </g>
    <g id="Light_Bottom_Nav_Tab_on_Primary-3" data-name="Light ðŸŒ•/ Bottom Nav/Tab on Primary" transform="translate(240)">
      <g id="Light_Elevation_00dp-4" data-name="Light ðŸŒ•/Elevation/00dp">
        <rect id="Rectangle-9" data-name="Rectangle" width="120" height="56" fill="#fff" style="mix-blend-mode: multiply;isolation: isolate"/>
      </g>
      <text id="_Caption-3" data-name="âœï¸ Caption" transform="translate(60 45)" fill="rgba(255,255,255,0.6)" font-size="12" font-family="Roboto-Regular, Roboto" letter-spacing="0.033em"><tspan x="-33.148" y="0">Information</tspan></text>
      <g id="icon_alert_error_24px" data-name="icon/alert/error_24px" transform="translate(48 8)">
        <rect id="Boundary-3" data-name="Boundary" width="24" height="24" fill="none"/>
        <path id="_Color-3" data-name=" â†³Color" d="M10,20A10,10,0,1,1,20,10,10.011,10.011,0,0,1,10,20ZM9,13v2h2V13ZM9,5v6h2V5Z" transform="translate(2 2)" fill="rgba(255,255,255,0.6)"/>
      </g>
    </g>
  </g>
</svg>
